<?xml version="1.0" encoding="UTF-8" standalone="no"?> <!-- Created with Vectornator for iOS (http://vectornator.io/) --><!DOCTYPE svg PUBLIC "-//W3C//DTD SVG 1.1//EN" "http://www.w3.org/Graphics/SVG/1.1/DTD/svg11.dtd">
<svg style="fill-rule:evenodd;clip-rule:evenodd;stroke-linecap:round;stroke-linejoin:round;" xmlns:vectornator="http://vectornator.io" xmlns:xlink="http://www.w3.org/1999/xlink" xmlns="http://www.w3.org/2000/svg" xml:space="preserve" version="1.1" viewBox="0 0 64 64">
<metadata>
<vectornator:setting key="DynamicGuides" value="1"/>
<vectornator:setting key="CMYKEnabledKey" value="0"/>
<vectornator:setting key="Units" value="Pixels"/>
<vectornator:setting key="GridSpacing" value="72"/>
<vectornator:setting key="SnapToGuides" value="1"/>
<vectornator:setting key="RulersVisible" value="1"/>
</metadata>
<defs/>
<g id="Layer 1" vectornator:layerName="Layer 1">
<path stroke="#6e6e6e" stroke-width="3" d="M45.1946+6.06023L34.1865+56.9397L7.05904+40.1934L57.0281+29.1864" fill="none" stroke-linecap="round" opacity="1" stroke-linejoin="round"/>
<path d="M40.8473+5.58901C41.1076+3.18806+43.2649+1.4527+45.6658+1.71297C48.0668+1.97323+49.8021+4.13057+49.5419+6.53151C49.2816+8.93245+47.1243+10.6678+44.7233+10.4075C42.3224+10.1473+40.587+7.98989+40.8473+5.58901Z" fill-rule="evenodd" fill="#000000" opacity="1"/>
<path d="M29.8392+56.4685C30.0995+54.0676+32.2568+52.3321+34.6577+52.5923C37.0587+52.8526+38.794+55.0099+38.5337+57.4109C38.2735+59.8118+36.1162+61.5473+33.7152+61.287C31.3143+61.0268+29.5789+58.8695+29.8392+56.4685Z" fill-rule="evenodd" fill="#000000" opacity="1"/>
<path d="M2.71178+39.722C2.972+37.3211+5.12936+35.5857+7.5303+35.846C9.93124+36.1063+11.6666+38.2637+11.4063+40.6645C11.146+43.0656+8.98868+44.8011+6.58779+44.5408C4.18685+44.2805+2.45151+42.1232+2.71178+39.722Z" fill-rule="evenodd" fill="#000000" opacity="1"/>
<path d="M52.5935+28.7152C52.8538+26.3142+55.0111+24.5789+57.412+24.8392C59.813+25.0994+61.5485+27.2568+61.2882+29.6577C61.028+32.0586+58.8706+33.794+56.4697+33.5337C54.0686+33.2735+52.3333+31.1161+52.5935+28.7152Z" fill-rule="evenodd" fill="#000000" opacity="1"/>
<g opacity="1">
<path d="M32.7849+5.90413C32.7849+5.40013+32.8309+4.88813+32.9229+4.36813C33.0149+3.84813+33.1789+3.37613+33.4149+2.95213C33.6509+2.52813+33.9729+2.18213+34.3809+1.91413C34.7889+1.64613+35.3089+1.51213+35.9409+1.51213C36.5729+1.51213+37.0929+1.64613+37.5009+1.91413C37.9089+2.18213+38.2309+2.52813+38.4669+2.95213C38.7029+3.37613+38.8669+3.84813+38.9589+4.36813C39.0509+4.88813+39.0969+5.40013+39.0969+5.90413C39.0969+6.40813+39.0509+6.92013+38.9589+7.44013C38.8669+7.96013+38.7029+8.43213+38.4669+8.85613C38.2309+9.28013+37.9089+9.62613+37.5009+9.89413C37.0929+10.1621+36.5729+10.2961+35.9409+10.2961C35.3089+10.2961+34.7889+10.1621+34.3809+9.89413C33.9729+9.62613+33.6509+9.28013+33.4149+8.85613C33.1789+8.43213+33.0149+7.96013+32.9229+7.44013C32.8309+6.92013+32.7849+6.40813+32.7849+5.90413ZM34.5849+5.90413C34.5849+6.12813+34.5949+6.39613+34.6149+6.70813C34.6349+7.02013+34.6889+7.32013+34.7769+7.60813C34.8649+7.89613+34.9989+8.14013+35.1789+8.34013C35.3589+8.54013+35.6129+8.64013+35.9409+8.64013C36.2609+8.64013+36.5129+8.54013+36.6969+8.34013C36.8809+8.14013+37.0169+7.89613+37.1049+7.60813C37.1929+7.32013+37.2469+7.02013+37.2669+6.70813C37.2869+6.39613+37.2969+6.12813+37.2969+5.90413C37.2969+5.68013+37.2869+5.41213+37.2669+5.10013C37.2469+4.78813+37.1929+4.48813+37.1049+4.20013C37.0169+3.91213+36.8809+3.66813+36.6969+3.46813C36.5129+3.26813+36.2609+3.16813+35.9409+3.16813C35.6129+3.16813+35.3589+3.26813+35.1789+3.46813C34.9989+3.66813+34.8649+3.91213+34.7769+4.20013C34.6889+4.48813+34.6349+4.78813+34.6149+5.10013C34.5949+5.41213+34.5849+5.68013+34.5849+5.90413Z" opacity="1" fill="#000000"/>
</g>
<g opacity="1">
<path d="M54.9809+16.6682L55.5689+16.6682C55.7369+16.6682+55.9009+16.6562+56.0609+16.6322C56.2209+16.6082+56.3669+16.5622+56.4989+16.4942C56.6309+16.4262+56.7369+16.3302+56.8169+16.2062C56.8969+16.0822+56.9369+15.9202+56.9369+15.7202C56.9369+15.4642+56.8349+15.2522+56.6309+15.0842C56.4269+14.9162+56.1769+14.8322+55.8809+14.8322C55.6009+14.8322+55.3689+14.9082+55.1849+15.0602C55.0009+15.2122+54.8809+15.4002+54.8249+15.6242L52.8449+15.2162C52.9409+14.8482+53.0849+14.5342+53.2769+14.2742C53.4689+14.0142+53.6969+13.8042+53.9609+13.6442C54.2249+13.4842+54.5189+13.3662+54.8429+13.2902C55.1669+13.2142+55.5089+13.1762+55.8689+13.1762C56.2449+13.1762+56.6069+13.2222+56.9549+13.3142C57.3029+13.4062+57.6089+13.5502+57.8729+13.7462C58.1369+13.9422+58.3469+14.1882+58.5029+14.4842C58.6589+14.7802+58.7369+15.1322+58.7369+15.5402C58.7369+16.0122+58.6129+16.4162+58.3649+16.7522C58.1169+17.0882+57.7569+17.3042+57.2849+17.4002L57.2849+17.4362C57.5409+17.4682+57.7669+17.5442+57.9629+17.6642C58.1589+17.7842+58.3249+17.9322+58.4609+18.1082C58.5969+18.2842+58.7009+18.4842+58.7729+18.7082C58.8449+18.9322+58.8809+19.1682+58.8809+19.4162C58.8809+19.8402+58.7989+20.2122+58.6349+20.5322C58.4709+20.8522+58.2509+21.1182+57.9749+21.3302C57.6989+21.5422+57.3749+21.7002+57.0029+21.8042C56.6309+21.9082+56.2369+21.9602+55.8209+21.9602C55.0609+21.9602+54.4069+21.7842+53.8589+21.4322C53.3109+21.0802+52.9489+20.5242+52.7729+19.7642L54.6689+19.3202C54.7329+19.6242+54.8629+19.8642+55.0589+20.0402C55.2549+20.2162+55.5449+20.3042+55.9289+20.3042C56.3209+20.3042+56.6109+20.2022+56.7989+19.9982C56.9869+19.7942+57.0809+19.5322+57.0809+19.2122C57.0809+18.9722+57.0309+18.7862+56.9309+18.6542C56.8309+18.5222+56.7009+18.4242+56.5409+18.3602C56.3809+18.2962+56.2009+18.2582+56.0009+18.2462C55.8009+18.2342+55.6009+18.2282+55.4009+18.2282L54.9809+18.2282L54.9809+16.6682Z" opacity="1" fill="#000000"/>
</g>
<g opacity="1">
<path d="M44.4717+54.7134L42.7677+56.2134L41.7477+55.0374L44.5197+52.6974L46.1997+52.6974L46.1997+61.1934L44.4717+61.1934L44.4717+54.7134Z" opacity="1" fill="#000000"/>
</g>
<g opacity="1">
<path d="M4.09504+53.9053L7.39504+50.9413C7.56304+50.7893+7.73104+50.6173+7.89904+50.4253C8.06704+50.2333+8.15104+50.0093+8.15104+49.7533C8.15104+49.4653+8.04704+49.2393+7.83904+49.0753C7.63104+48.9113+7.38704+48.8293+7.10704+48.8293C6.77104+48.8293+6.50904+48.9333+6.32104+49.1413C6.13304+49.3493+6.02704+49.6053+6.00304+49.9093L4.20304+49.7773C4.22704+49.3373+4.31904+48.9553+4.47904+48.6313C4.63904+48.3073+4.85104+48.0373+5.11504+47.8213C5.37904+47.6053+5.68904+47.4433+6.04504+47.3353C6.40104+47.2273+6.78704+47.1733+7.20304+47.1733C7.58704+47.1733+7.94704+47.2273+8.28304+47.3353C8.61904+47.4433+8.91104+47.6033+9.15904+47.8153C9.40704+48.0273+9.60104+48.2933+9.74104+48.6133C9.88104+48.9333+9.95104+49.3053+9.95104+49.7293C9.95104+50.0013+9.92304+50.2473+9.86704+50.4673C9.81104+50.6873+9.73304+50.8873+9.63304+51.0673C9.53304+51.2473+9.41504+51.4133+9.27904+51.5653C9.14304+51.7173+8.99504+51.8653+8.83504+52.0093L6.25504+54.2293L10.023+54.2293L10.023+55.8133L4.09504+55.8133L4.09504+53.9053Z" opacity="1" fill="#000000"/>
</g>
</g>
</svg>
