<?xml version="1.0" encoding="UTF-8" standalone="no"?> <!-- Created with Vectornator for iOS (http://vectornator.io/) --><!DOCTYPE svg PUBLIC "-//W3C//DTD SVG 1.1//EN" "http://www.w3.org/Graphics/SVG/1.1/DTD/svg11.dtd">
<svg id="Layer 0" style="fill-rule:evenodd;clip-rule:evenodd;stroke-linecap:round;stroke-linejoin:round;" xmlns:vectornator="http://vectornator.io" xmlns:xlink="http://www.w3.org/1999/xlink" xmlns="http://www.w3.org/2000/svg" xml:space="preserve" version="1.1" viewBox="0 0 161 161">
<metadata>
<vectornator:setting key="DisplayWhiteBackground" value="1"/>
<vectornator:setting key="RulersVisible" value="1"/>
<vectornator:setting key="SnapToEdges" value="0"/>
<vectornator:setting key="Units" value="Millimiters"/>
<vectornator:setting key="DynamicGuides" value="1"/>
<vectornator:setting key="SnapToPoints" value="0"/>
<vectornator:setting key="CMYKEnabledKey" value="0"/>
<vectornator:setting key="SnapToGrid" value="0"/>
<vectornator:setting key="SnapToGuides" value="1"/>
<vectornator:setting key="ShowGrid" value="0"/>
<vectornator:setting key="GridSpacing" value="72"/>
</metadata>
<defs/>
<g id="Layer 1" vectornator:layerName="Layer 1">
<path stroke="#686868" stroke-width="8.49" d="M106.792+20.1422L82.2527+141.699L20.3915+105.273L143.15+76.2414" fill="none" stroke-linecap="round" opacity="1" stroke-linejoin="round"/>
<path d="M94.407+20.1422C94.407+13.3023+99.9518+7.75753+106.792+7.75753C113.632+7.75753+119.176+13.3023+119.176+20.1422C119.176+26.9821+113.632+32.5269+106.792+32.5269C99.9518+32.5269+94.407+26.9821+94.407+20.1422Z" opacity="1" fill="#000000"/>
<g opacity="1">
<path d="M72.7534+20.1126C72.7534+18.6426+72.8875+17.1493+73.1559+15.6326C73.4242+14.1159+73.9025+12.7393+74.5909+11.5026C75.2792+10.2659+76.2184+9.25676+77.4084+8.4751C78.5984+7.69343+80.115+7.3026+81.9584+7.3026C83.8017+7.3026+85.3184+7.69343+86.5084+8.4751C87.6984+9.25676+88.6375+10.2659+89.3259+11.5026C90.0142+12.7393+90.4925+14.1159+90.7609+15.6326C91.0292+17.1493+91.1634+18.6426+91.1634+20.1126C91.1634+21.5826+91.0292+23.0759+90.7609+24.5926C90.4925+26.1093+90.0142+27.4859+89.3259+28.7226C88.6375+29.9593+87.6984+30.9684+86.5084+31.7501C85.3184+32.5318+83.8017+32.9226+81.9584+32.9226C80.115+32.9226+78.5984+32.5318+77.4084+31.7501C76.2184+30.9684+75.2792+29.9593+74.5909+28.7226C73.9025+27.4859+73.4242+26.1093+73.1559+24.5926C72.8875+23.0759+72.7534+21.5826+72.7534+20.1126ZM78.0034+20.1126C78.0034+20.7659+78.0325+21.5476+78.0909+22.4576C78.1492+23.3676+78.3067+24.2426+78.5634+25.0826C78.82+25.9226+79.2109+26.6343+79.7359+27.2176C80.2609+27.8009+81.0017+28.0926+81.9584+28.0926C82.8917+28.0926+83.6267+27.8009+84.1634+27.2176C84.7+26.6343+85.0967+25.9226+85.3534+25.0826C85.61+24.2426+85.7675+23.3676+85.8259+22.4576C85.8842+21.5476+85.9134+20.7659+85.9134+20.1126C85.9134+19.4593+85.8842+18.6776+85.8259+17.7676C85.7675+16.8576+85.61+15.9826+85.3534+15.1426C85.0967+14.3026+84.7+13.5909+84.1634+13.0076C83.6267+12.4243+82.8917+12.1326+81.9584+12.1326C81.0017+12.1326+80.2609+12.4243+79.7359+13.0076C79.2109+13.5909+78.82+14.3026+78.5634+15.1426C78.3067+15.9826+78.1492+16.8576+78.0909+17.7676C78.0325+18.6776+78.0034+19.4593+78.0034+20.1126Z" opacity="1" fill="#000000"/>
</g>
<path d="M130.765+76.2414C130.765+69.4015+136.31+63.8567+143.15+63.8567C149.99+63.8567+155.534+69.4015+155.534+76.2414C155.534+83.0813+149.99+88.6261+143.15+88.6261C136.31+88.6261+130.765+83.0813+130.765+76.2414Z" opacity="1" fill="#000000"/>
<g opacity="1">
<path d="M105.987+133.758L101.017+138.133L98.042+134.703L106.127+127.878L111.027+127.878L111.027+152.658L105.987+152.658L105.987+133.758Z" opacity="1" fill="#000000"/>
</g>
<path d="M69.868+141.699C69.868+134.86+75.4128+129.315+82.2527+129.315C89.0926+129.315+94.6374+134.86+94.6374+141.699C94.6374+148.539+89.0926+154.084+82.2527+154.084C75.4128+154.084+69.868+148.539+69.868+141.699Z" opacity="1" fill="#000000"/>
<g opacity="1">
<path d="M11.5162+144.336L21.1412+135.691C21.6312+135.248+22.1212+134.746+22.6112+134.186C23.1012+133.626+23.3462+132.973+23.3462+132.226C23.3462+131.386+23.0428+130.727+22.4362+130.249C21.8295+129.77+21.1178+129.531+20.3012+129.531C19.3212+129.531+18.557+129.834+18.0087+130.441C17.4603+131.048+17.1512+131.794+17.0812+132.681L11.8312+132.296C11.9012+131.013+12.1695+129.899+12.6362+128.954C13.1028+128.009+13.7212+127.221+14.4912+126.591C15.2612+125.961+16.1653+125.489+17.2037+125.174C18.242+124.859+19.3678+124.701+20.5812+124.701C21.7012+124.701+22.7512+124.859+23.7312+125.174C24.7112+125.489+25.5628+125.955+26.2862+126.574C27.0095+127.192+27.5753+127.968+27.9837+128.901C28.392+129.834+28.5962+130.919+28.5962+132.156C28.5962+132.949+28.5145+133.667+28.3512+134.309C28.1878+134.95+27.9603+135.534+27.6687+136.059C27.377+136.584+27.0328+137.068+26.6362+137.511C26.2395+137.954+25.8078+138.386+25.3412+138.806L17.8162+145.281L28.8062+145.281L28.8062+149.901L11.5162+149.901L11.5162+144.336Z" opacity="1" fill="#000000"/>
</g>
<path d="M8.00686+105.273C8.00686+98.4335+13.5517+92.8887+20.3915+92.8887C27.2314+92.8887+32.7762+98.4335+32.7762+105.273C32.7762+112.113+27.2314+117.658+20.3915+117.658C13.5517+117.658+8.00686+112.113+8.00686+105.273Z" opacity="1" fill="#000000"/>
<g opacity="1">
<path d="M140.286+44.6586L142.001+44.6586C142.491+44.6586+142.969+44.6236+143.436+44.5536C143.902+44.4836+144.328+44.3494+144.713+44.1511C145.098+43.9528+145.407+43.6728+145.641+43.3111C145.874+42.9494+145.991+42.4769+145.991+41.8936C145.991+41.1469+145.693+40.5286+145.098+40.0386C144.503+39.5486+143.774+39.3036+142.911+39.3036C142.094+39.3036+141.417+39.5253+140.881+39.9686C140.344+40.4119+139.994+40.9603+139.831+41.6136L134.056+40.4236C134.336+39.3503+134.756+38.4344+135.316+37.6761C135.876+36.9178+136.541+36.3053+137.311+35.8386C138.081+35.3719+138.938+35.0278+139.883+34.8061C140.828+34.5844+141.826+34.4736+142.876+34.4736C143.972+34.4736+145.028+34.6078+146.043+34.8761C147.058+35.1444+147.951+35.5644+148.721+36.1361C149.491+36.7078+150.103+37.4253+150.558+38.2886C151.013+39.1519+151.241+40.1786+151.241+41.3686C151.241+42.7453+150.879+43.9236+150.156+44.9036C149.432+45.8836+148.382+46.5136+147.006+46.7936L147.006+46.8986C147.752+46.9919+148.412+47.2136+148.983+47.5636C149.555+47.9136+150.039+48.3453+150.436+48.8586C150.832+49.3719+151.136+49.9553+151.346+50.6086C151.556+51.2619+151.661+51.9503+151.661+52.6736C151.661+53.9103+151.422+54.9953+150.943+55.9286C150.465+56.8619+149.823+57.6378+149.018+58.2561C148.213+58.8744+147.268+59.3353+146.183+59.6386C145.098+59.9419+143.949+60.0936+142.736+60.0936C140.519+60.0936+138.612+59.5803+137.013+58.5536C135.415+57.5269+134.359+55.9053+133.846+53.6886L139.376+52.3936C139.562+53.2803+139.942+53.9803+140.513+54.4936C141.085+55.0069+141.931+55.2636+143.051+55.2636C144.194+55.2636+145.04+54.9661+145.588+54.3711C146.137+53.7761+146.411+53.0119+146.411+52.0786C146.411+51.3786+146.265+50.8361+145.973+50.4511C145.682+50.0661+145.302+49.7803+144.836+49.5936C144.369+49.4069+143.844+49.2961+143.261+49.2611C142.677+49.2261+142.094+49.2086+141.511+49.2086L140.286+49.2086L140.286+44.6586Z" opacity="1" fill="#000000"/>
</g>
</g>
</svg>
