<?xml version="1.0" encoding="UTF-8" standalone="no"?> <!-- Created with Vectornator for iOS (http://vectornator.io/) --><!DOCTYPE svg PUBLIC "-//W3C//DTD SVG 1.1//EN" "http://www.w3.org/Graphics/SVG/1.1/DTD/svg11.dtd">
<svg style="fill-rule:evenodd;clip-rule:evenodd;stroke-linecap:round;stroke-linejoin:round;" xmlns:vectornator="http://vectornator.io" xmlns:xlink="http://www.w3.org/1999/xlink" xmlns="http://www.w3.org/2000/svg" xml:space="preserve" version="1.1" viewBox="0 0 64 64">
<metadata>
<vectornator:setting key="DynamicGuides" value="1"/>
<vectornator:setting key="Units" value="Pixels"/>
<vectornator:setting key="RulersVisible" value="1"/>
<vectornator:setting key="SnapToGuides" value="1"/>
<vectornator:setting key="GridSpacing" value="72"/>
</metadata>
<defs/>
<g id="Layer 1" vectornator:layerName="Layer 1">
<path stroke="#000000" stroke-width="3" d="M45.1946+6.06023L34.1865+57.9397L7.05904+49.1934L56.9409+34.1864" fill="none" stroke-linecap="round" opacity="1" stroke-linejoin="round"/>
<path d="M40.8473+5.58901C41.1076+3.18806+43.2649+1.4527+45.6658+1.71297C48.0668+1.97323+49.8021+4.13057+49.5419+6.53151C49.2816+8.93245+47.1243+10.6678+44.7233+10.4075C42.3224+10.1473+40.587+7.98989+40.8473+5.58901Z" fill-rule="evenodd" fill="#da0202" opacity="1"/>
<path d="M29.8392+57.4685C30.0995+55.0676+32.2568+53.3321+34.6577+53.5923C37.0587+53.8526+38.794+56.0099+38.5337+58.4109C38.2735+60.8118+36.1162+62.5473+33.7152+62.287C31.3143+62.0268+29.5789+59.8695+29.8392+57.4685Z" fill-rule="evenodd" fill="#9f00a7" opacity="1"/>
<path d="M2.71178+48.722C2.972+46.3211+5.12936+44.5857+7.5303+44.846C9.93124+45.1063+11.6666+47.2637+11.4063+49.6645C11.146+52.0656+8.98868+53.8011+6.58779+53.5408C4.18685+53.2805+2.45151+51.1232+2.71178+48.722Z" fill-rule="evenodd" fill="#0005cd" opacity="1"/>
<path d="M52.5935+33.7152C52.8538+31.3142+55.0111+29.5789+57.412+29.8392C59.813+30.0994+61.5485+32.2568+61.2882+34.6577C61.028+37.0586+58.8706+38.794+56.4697+38.5337C54.0686+38.2735+52.3333+36.1161+52.5935+33.7152Z" fill-rule="evenodd" fill="#01aab7" opacity="1"/>
</g>
</svg>
